<?xml version="1.0" encoding="UTF-8"?>
<svg width="401px" height="242px" viewBox="0 0 401 242" version="1.1" xmlns="http://www.w3.org/2000/svg" xmlns:xlink="http://www.w3.org/1999/xlink">
    <!-- Generator: Sketch 58 (84663) - https://sketch.com -->
    <title>main image combined</title>
    <desc>Created with Sketch.</desc>
    <defs>
        <polygon id="path-1" points="0 0 67 0 67 106 0 106"></polygon>
        <polygon id="path-3" points="0.00334913793 0.0746538793 36.9286315 0.0746538793 36.9286315 37 0.00334913793 37"></polygon>
        <polygon id="path-5" points="0.0608411215 0.0406839827 185.931573 0.0406839827 185.931573 36.9502422 0.0608411215 36.9502422"></polygon>
        <polygon id="path-7" points="0.340421053 0.292 6.71447368 0.292 6.71447368 5.9149 0.340421053 5.9149"></polygon>
        <circle id="path-9" cx="13.5" cy="13.5" r="13.5"></circle>
        <circle id="path-11" cx="323.5" cy="130.5" r="13.5"></circle>
    </defs>
    <g id="car-insurance-job-picker-" stroke="none" stroke-width="1" fill="none" fill-rule="evenodd">
        <g id="main-image-combined">
            <path d="M242.52361,240.991827 C322.094339,247.920823 400.417073,218.753668 370.313375,164.096598 C340.209677,109.439529 432.550932,33.9159811 358.444357,13.8758694 C284.337782,-6.16424231 108.403702,-12.5837047 75.1704501,51.4053151 C41.9371985,115.394335 0,133.112915 0,198.566873 C0,264.020831 162.952881,234.062831 242.52361,240.991827 Z" id="shape-background" fill="#EBECF1"></path>
            <g id="Group-8" transform="translate(55.000000, 33.000000)">
                <g id="background-scene-" transform="translate(31.000000, 0.000000)">
                    <g id="tree" transform="translate(235.000000, 16.000000)">
                        <mask id="mask-2" fill="white">
                            <use xlink:href="#path-1"></use>
                        </mask>
                        <g id="Clip-2"></g>
                        <path d="M19.8329541,59.1175865 C21.7519443,58.7618178 23.5516753,58.0761792 25.1826815,57.1226917 L25.1826815,68.1358469 C23.0556651,65.3469472 21.2654207,62.3358624 19.8329541,59.1175865 M37.4914591,78.4238337 L37.4914591,63.1291857 C39.8725791,64.0233784 42.4386864,64.5359035 45.1308292,64.5359035 C46.1879001,64.5359035 47.2185443,64.4350342 48.2349737,64.2891827 C48.2444451,71.2300808 43.7972936,76.8160588 37.4914591,78.4238337 M0,42.5388997 C0,51.8570418 7.5099467,59.4113343 16.7742245,59.4113343 C16.7776126,59.4113343 16.7810006,59.4106527 16.7843887,59.4106527 C18.8361904,64.2864565 21.6679208,68.7403812 25.1826815,72.6947302 L25.1826815,106 L37.4914591,106 L37.4914591,81.4117458 C45.4547266,79.720822 51.2266048,72.7342601 51.1297066,64.1290186 C51.1276738,63.9661283 51.0795635,63.8359524 51.0382293,63.7016872 C60.2421999,61.1063474 67,52.6258294 67,42.5388997 C67,35.1345481 63.3510725,28.5991719 57.7750235,24.61279 C58.2168249,23.1024767 58.4634748,21.5090145 58.4634748,19.8548943 C58.4634748,10.5374338 50.9535281,2.9831413 41.6892503,2.9831413 C39.1848054,2.9831413 36.81656,3.55087187 34.6827675,4.53979991 C31.6870556,1.73113523 27.6789951,0 23.2609808,0 C13.996703,0 6.48675627,7.55361093 6.48675627,16.871753 C6.48675627,20.7361375 7.79115467,24.2849648 9.96424851,27.12907 C4.09682737,29.7571241 0,35.6620673 0,42.5388997" id="Fill-1" fill="#E0E0E8" mask="url(#mask-2)"></path>
                    </g>
                    <g id="buildings" fill="#DDDEE9">
                        <rect id="Rectangle" x="83" y="16" width="49" height="101"></rect>
                        <rect id="Rectangle" x="41" y="58" width="49" height="59"></rect>
                        <rect id="Rectangle" x="0" y="58" width="26" height="59"></rect>
                        <rect id="Rectangle" x="108" y="0" width="7" height="22"></rect>
                    </g>
                    <path d="M212,126 L279,126 C279,108 274.333333,99 265,99 C251,99 249,113.086957 237,113.086957 C225,113.086957 206,102.521739 206,113.086957 C206,120.130435 208,124.434783 212,126 Z" id="Path-7" fill="#DDDEE9"></path>
                </g>
                <g id="main-image" transform="translate(0.000000, 15.000000)">
                    <ellipse id="Oval" fill="#DFE0E6" cx="77.5" cy="139.5" rx="19.5" ry="1.5"></ellipse>
                    <g id="Group-5" transform="translate(0.000000, 31.000000)">
                        <g id="Group-3">
                            <g id="Group-2">
                                <g id="Group-43" transform="translate(0.000000, 12.000000)">
                                    <path d="M251.763636,37 L123.493395,37 L44.2282631,37 C22.5631462,37 5,54.4608707 5,76 L5,76 L123.493395,76 L276,76 L276,61.0953366 C276,47.7878333 265.149027,37 251.763636,37" id="Fill-1" fill="#3DBCBC"></path>
                                    <path d="M241.980328,75.62343 C240.373632,63.9741731 230.333497,55 218.185496,55 C206.037494,55 195.997438,63.9741731 194.390663,75.62343 L101.701646,75.62343 C100.09495,63.9741731 90.0549729,55 77.9068926,55 C65.7588912,55 55.7188353,63.9741731 54.1120603,75.62343 L0,75.62343 L0,82 L54.093364,82 L101.720421,82 L194.371967,82 L241.999024,82 L281,82 L281,75.62343 L241.980328,75.62343 Z" id="Fill-3" fill="#2799A3"></path>
                                    <g id="Group-7" transform="translate(59.000000, 60.000000)">
                                        <mask id="mask-4" fill="white">
                                            <use xlink:href="#path-3"></use>
                                        </mask>
                                        <g id="Clip-6"></g>
                                        <path d="M36.9286315,18.5373349 C36.9286315,28.7339448 28.6626401,37.0000159 18.4659504,37.0000159 C8.26934052,37.0000159 0.00334913793,28.7339448 0.00334913793,18.5373349 C0.00334913793,8.34064526 8.26934052,0.0746538793 18.4659504,0.0746538793 C28.6626401,0.0746538793 36.9286315,8.34064526 36.9286315,18.5373349" id="Fill-5" fill="#1B8095" mask="url(#mask-4)"></path>
                                    </g>
                                    <g id="Group-10" transform="translate(62.000000, 0.000000)">
                                        <mask id="mask-6" fill="white">
                                            <use xlink:href="#path-5"></use>
                                        </mask>
                                        <g id="Clip-9"></g>
                                        <path d="M143.18231,0.0406599567 L88.3423356,0.0406599567 C55.2602523,0.0406599567 23.5222838,13.3099652 0.0608411215,36.9502422 L0.0608411215,36.9502422 L185.931573,36.9502422 L180.193466,24.1780344 C173.588569,9.476621 159.119918,0.0406599567 143.18231,0.0406599567" id="Fill-8" fill="#3DBCBC" mask="url(#mask-6)"></path>
                                    </g>
                                    <path d="M81.3957773,29.9743403 C74.9478713,34.6310905 73,37 73,37 L150,37 L150,7 C125.014728,7.13401645 101.224832,15.1795831 81.3957773,29.9743403" id="Fill-11" fill="#E6F2FF"></path>
                                    <path d="M240,37 L236.854972,29.9750929 L236.854972,29.9750125 C230.590031,15.9815145 216.866666,7 201.749994,7 L157,7 L157,37 L240,37 Z" id="Fill-13" fill="#E6F2FF"></path>
                                    <path d="M32.8930391,61 L26.2934502,61 C23.1616325,61 21.0861707,57.8290321 22.4018715,55.0545115 L22.4019496,55.0545115 C24.152547,51.3628254 27.9400285,49 32.1069609,49 L38.7065498,49 C41.8383675,49 43.9138293,52.1709679 42.5981285,54.9454885 C40.847453,58.6371746 37.0599715,61 32.8930391,61" id="Fill-15" fill="#FFF4C9"></path>
                                    <path d="M262.431057,59 L252.044738,59 C249.102491,59 247.147099,56.0120203 248.370601,53.3858764 C248.76394,52.5415389 249.622983,52 250.568911,52 L260.95523,52 C263.897477,52 265.852952,54.9879797 264.629367,57.6141236 L264.629367,57.6142046 C264.236028,58.4584611 263.376985,59 262.431057,59" id="Fill-17" fill="#E15757"></path>
                                    <polygon id="Fill-19" fill="#1B8095" points="138 48 150 48 150 44 138 44"></polygon>
                                    <path d="M236,78.5 C236,88.7172205 227.717203,97 217.49996,97 C207.282717,97 199,88.7172205 199,78.5 C199,68.2826996 207.282717,60 217.49996,60 C227.717203,60 236,68.2826996 236,78.5" id="Fill-22" fill="#1B8095"></path>
                                    <path d="M231,78.5 C231,85.9558803 224.955801,92 217.5,92 C210.04412,92 204,85.9558803 204,78.5 C204,71.0441197 210.04412,65 217.5,65 C224.955801,65 231,71.0441197 231,78.5" id="Fill-23" fill="#DFEDFE"></path>
                                    <path d="M222,78.5 C222,80.9852949 219.985295,83 217.5,83 C215.014626,83 213,80.9852949 213,78.5 C213,76.0147051 215.014626,74 217.5,74 C219.985295,74 222,76.0147051 222,78.5" id="Fill-24" fill="#197183"></path>
                                    <polygon id="Fill-25" fill="#1B8095" points="217 71 219 71 219 68 217 68"></polygon>
                                    <polygon id="Fill-26" fill="#1B8095" points="217 89 219 89 219 86 217 86"></polygon>
                                    <polygon id="Fill-27" fill="#1B8095" points="225 80 229 80 229 78 225 78"></polygon>
                                    <polygon id="Fill-28" fill="#1B8095" points="207 80 211 80 211 78 207 78"></polygon>
                                    <polygon id="Fill-29" fill="#1B8095" points="224.355615 74 223 72.6443853 225.644385 70 227 71.3556147"></polygon>
                                    <polygon id="Fill-30" fill="#1B8095" points="211.355642 87 210 85.6443052 212.644438 83 214 84.3556147"></polygon>
                                    <polygon id="Fill-31" fill="#1B8095" points="223 84.3556147 224.355615 83 227 85.6443853 225.644305 87"></polygon>
                                    <polygon id="Fill-32" fill="#1B8095" points="210 71.3556147 211.355642 70 214 72.6443853 212.644358 74"></polygon>
                                    <path d="M91,78.5 C91,85.9558803 84.9558191,92 77.4999606,92 C70.0441809,92 64,85.9558803 64,78.5 C64,71.0441197 70.0441809,65 77.4999606,65 C84.9558191,65 91,71.0441197 91,78.5" id="Fill-33" fill="#DFEDFE"></path>
                                    <path d="M82,78.5 C82,80.9852949 79.9852949,83 77.5,83 C75.0147051,83 73,80.9852949 73,78.5 C73,76.0147051 75.0147051,74 77.5,74 C79.9852949,74 82,76.0147051 82,78.5" id="Fill-34" fill="#197183"></path>
                                    <polygon id="Fill-35" fill="#1B8095" points="77 71 79 71 79 68 77 68"></polygon>
                                    <polygon id="Fill-36" fill="#1B8095" points="77 89 79 89 79 86 77 86"></polygon>
                                    <polygon id="Fill-37" fill="#1B8095" points="85 80 89 80 89 78 85 78"></polygon>
                                    <polygon id="Fill-38" fill="#1B8095" points="67 80 71 80 71 78 67 78"></polygon>
                                    <polygon id="Fill-39" fill="#1B8095" points="83.3556948 74 82 72.6443853 84.6444653 70 86 71.3556147"></polygon>
                                    <polygon id="Fill-40" fill="#1B8095" points="70.3556147 87 69 85.6443052 71.6443853 83 73 84.3556147"></polygon>
                                    <polygon id="Fill-41" fill="#1B8095" points="82 84.3556147 83.3556948 83 86 85.6443853 84.6443853 87"></polygon>
                                    <polygon id="Fill-42" fill="#1B8095" points="69 71.3556147 70.3556147 70 73 72.6443853 71.6443853 74"></polygon>
                                </g>
                                <g id="Group" transform="translate(95.000000, 0.000000)">
                                    <path d="M46,23.5552589 C44.3179294,21.1038438 43.1461055,17.9539492 42.0667247,15.4564415 C41.8736139,14.7682441 41.5702951,14.1332304 41.1840735,13.5670011 C40.1241026,12.0126181 38.4209773,11 36.4941461,11 L34.4548041,11 C31.4420126,11 29,13.6318852 29,16.8789288 C29.7875762,14.0782739 32.5276439,12.4905625 35.1295404,13.3280289 L35.483851,13.4421966 L37.9429705,16.8789288 C39.0828834,16.8789288 40.006657,17.8748827 40.006657,19.1030721 C40.006657,20.3316162 39.0828834,21.3272155 37.9429705,21.3272155 L37.9429705,28 L42.7437639,28 L46,23.5552589 Z" id="Fill-4" fill="#56040E"></path>
                                    <path d="M52.7258453,25.0134526 C52.6954961,25.0112711 52.6675611,25.0029087 52.637212,25 L49.0215248,32.0237129 L48,37.2538666 C49.2160352,37.7785181 50.5317398,38.0646586 51.9426303,37.9875788 C60.5573052,37.515647 59.2147002,25.4853844 52.7258453,25.0134526" id="Fill-6" fill="#56040E"></path>
                                    <path d="M60.5472273,3 L46.4302858,21.5807551 L43.068802,26.0055344 L38.1136781,26.0055344 L33.4981323,30.3833729 L33.4981323,26.0055344 L27.8893206,26.0055344 C24.1848629,26.0055344 20.8356039,28.2960997 19.3696452,31.831829 L14.8685372,42.6903085 L3,45 L3,48 L16.4350111,47.8802565 C18.0306887,47.8802565 19.5261907,47.0713234 20.4416933,45.7128665 L24.4225676,39.8036315 L26,49 L45,49 L47.7475093,37.3454208 L48.7533397,32.2687658 L52.3134766,25.4503635 L63,4.98456836 L60.5472273,3 Z" id="Fill-8" fill="#F9BF00"></path>
                                    <path d="M38.7504259,16.7169938 L36.069014,13.3326028 L35.6827271,13.2201738 C32.8460113,12.395462 29.8586544,13.9589927 29,16.7169938 L29,19.6865848 C29,21.8768546 30.8241922,23.6530226 33.0748423,23.6530226 L33.8750336,23.6530226 L33.8750336,27.6686918 L33.8750336,32 L38.7504259,27.6686918 L38.7504259,21.0975333 C39.9928565,21.0975333 41,20.1170969 41,18.9072636 C41,17.6977793 39.9928565,16.7169938 38.7504259,16.7169938" id="Fill-10" fill="#F59D9D"></path>
                                    <path d="M35,19 C35,20.10456 33.8806187,21 32.4998185,21 C31.1193813,21 30,20.10456 30,19 L35,19 Z" id="Fill-12" fill="#FFFFFF"></path>
                                    <polygon id="Fill-26" fill="#D78F10" points="36 49 35 49 35 31.3091265 36 30"></polygon>
                                    <g id="Group-30" transform="translate(60.000000, 0.000000)">
                                        <mask id="mask-8" fill="white">
                                            <use xlink:href="#path-7"></use>
                                        </mask>
                                        <g id="Clip-29"></g>
                                        <polygon id="Fill-28" fill="#F59D9D" mask="url(#mask-8)" points="0.340421053 4.04056667 0.340421053 1.15723333 4.48331579 0.2919 6.71447368 3.17556667 3.00152632 5.9149"></polygon>
                                    </g>
                                    <polygon id="Fill-34" fill="#F7A196" points="3 45.2172196 1 44 1 50 3 48.9751185"></polygon>
                                    <polygon id="Fill-35" fill="#F7A196" points="0 48.974791 1 50 1 44 0 45.025209"></polygon>
                                </g>
                            </g>
                            <g id="Group-4" transform="translate(182.000000, 10.000000)">
                                <path d="M32,9.36440159 C30.7573029,9.587236 29.6201801,8.52341598 29.6201801,6.20615243 L29.6190803,6.20615243 C29.6289779,6.07438017 29.6399753,5.94367922 29.6399753,5.80976431 C29.6399753,2.60116315 26.9698261,0 23.6761289,0 L21.5866383,0 C18.5018902,0 16,2.43617998 16,5.44230181 L20.3439412,5.44230181 L20.3439412,2.26048362 L25.1596673,5.44230181 C26.3275827,5.44230181 27.2733521,6.36363636 27.2733521,7.50137741 C27.2733521,8.63804714 26.3275827,9.56045301 25.1596673,9.56045301 L25.1596673,14 C31.9868032,13.2693603 32,9.36440159 32,9.36440159" id="Fill-3" fill="#283254"></path>
                                <path d="M24.9375671,5.30524642 L20.2386109,2 L20.2386109,5.30524642 L16,5.30524642 L16,8.20429253 C16,10.3443561 17.6718369,12.0782194 19.7353429,12.0782194 L20.4693201,12.0782194 L20.4693201,16 L24.9375671,16 L24.9375671,9.58314785 C26.0771632,9.58314785 27,8.62496025 27,7.44419714 C27,6.26232114 26.0771632,5.30524642 24.9375671,5.30524642" id="Fill-5" fill="#DD6214"></path>
                                <path d="M26.1215588,4.87844119 C27.2928137,6.0496961 27.2928137,7.94923132 26.1215588,9.12155881 C24.9492313,10.2928137 23.0507687,10.2928137 21.8784412,9.12155881 C20.7071863,7.94923132 20.7071863,6.0496961 21.8784412,4.87844119 C23.0507687,3.70718627 24.9492313,3.70718627 26.1215588,4.87844119" id="Fill-7" fill="#B7D7FF"></path>
                                <path d="M21.3665123,9.24108659 C20.2981481,8.17255749 20.2981481,6.43417194 21.3665123,5.36564285 C21.8839506,4.84812471 22.5720679,4.56289551 23.3044753,4.56289551 C24.0358025,4.56289551 24.7239198,4.84812471 25.241358,5.36564285 C26.3097222,6.43417194 26.3097222,8.17255749 25.241358,9.24108659 C24.1740741,10.3096157 22.4337963,10.3096157 21.3665123,9.24108659 L21.3665123,9.24108659 Z M27,10.6024078 L25.8182099,9.42043525 C26.9092593,8.12393888 26.8584877,6.18675722 25.6399691,4.96697021 C25.0155864,4.34357154 24.1859568,4 23.3044753,4 C22.4219136,4 21.592284,4.34357154 20.9689815,4.96697021 C20.3445988,5.5914493 20,6.42120698 20,7.30390492 C20,8.18552246 20.3445988,9.01528014 20.9689815,9.63975922 C21.6128086,10.2836858 22.458642,10.605649 23.3044753,10.605649 C24.0606481,10.605649 24.8092593,10.3333848 25.420679,9.81910789 L26.6024691,11 L27,10.6024078 Z" id="Fill-9" fill="#3185F1"></path>
                                <path d="M29.8042696,12.8042696 L29.8042696,12.8042696 C29.5432958,13.0652435 29.1182538,13.0652435 28.8572799,12.8042696 L27.19645,11.1434397 C26.9345167,10.8815064 26.9345167,10.4574238 27.19645,10.19645 C27.4583833,9.93451667 27.8815064,9.93451667 28.1443991,10.19645 L29.8042696,11.8572799 C30.0652435,12.1182538 30.0652435,12.5432958 29.8042696,12.8042696" id="Fill-11" fill="#FFCC67"></path>
                                <polygon id="Fill-13" fill="#DD6214" points="28.3807369 14 27 13.3386924 27.1687136 12.0578778 28.1257272 11 29.8458306 11 30 13.073955"></polygon>
                                <path d="M5.74010895,29.8679216 L10.5448981,25.7683705 L13.0427704,38.3272427 L5.74010895,29.8679216 Z M42.1949153,27.1411357 L30.6570193,13 L28.8125896,13.952666 L29.9053397,16.2328897 L19.1169157,16.2328897 L17.090361,16.2328897 C11.7767255,16.2328897 6.77215073,18.7314326 3.58109962,22.9776325 L0.915451593,26.5258723 C-0.593426605,28.5337481 -0.196062925,31.3818225 1.80510472,32.9012365 L12.4699044,41 L13.7955538,39.1994172 L32.006952,39.1994172 L34.16265,28.3584311 L37.4574572,31.5196503 C37.4938822,31.5549342 37.5280996,31.5902182 37.5645246,31.6232968 L37.5910155,31.6475545 L37.5899117,31.6420414 C37.8768966,31.8890289 38.2036179,32.0930141 38.5656603,32.2275341 L38.6793505,32.2694337 C40.842775,33.072143 43.1320313,31.3961566 42.9940578,29.0729306 C42.9521139,28.3628416 42.6452608,27.6935497 42.1949153,27.1411357 L42.1949153,27.1411357 Z" id="Fill-15" fill="#F9BF00"></path>
                                <polygon id="Fill-17" fill="#DD6214" points="13.4083021 38.5413534 15.4486398 37 17 38.5413534 15.4486398 40.5877193 13.8667917 41 12 40.5877193"></polygon>
                            </g>
                        </g>
                        <path d="M89.9369827,37 L85.1261945,37 C78.4290703,37 73,42.3725712 73,49 L73,49 L89.9369827,49 C93.2855048,49 96,46.3136748 96,43 L96,43 C96,39.6863252 93.2855048,37 89.9369827,37" id="Fill-21" fill="#2799A3"></path>
                    </g>
                    <ellipse id="Oval" fill="#DBDDE6" cx="217.5" cy="141.5" rx="19.5" ry="1.5"></ellipse>
                    <path d="M0,0 L65,0 C73.2842712,0 80,6.71572875 80,15 L80,42 L0,42 L0,0 Z" id="Rectangle" fill="#8A1C9B"></path>
                    <path d="M266,109 L331,109 C339.284271,109 346,115.715729 346,124 L346,151 L266,151 L266,109 Z" id="Rectangle" fill="#8A1C9B"></path>
                    <polyline id="Path-2" stroke="#8A1C9B" points="43 42 43 65 105 65"></polyline>
                    <circle id="Oval" fill="#8A1C9B" cx="107" cy="65" r="3"></circle>
                    <circle id="Oval" fill="#8A1C9B" cx="231" cy="65" r="3"></circle>
                    <g id="Path-3" transform="translate(7.000000, 7.000000)">
                        <mask id="mask-10" fill="white">
                            <use xlink:href="#path-9"></use>
                        </mask>
                        <use id="Mask" stroke="#FFFFFF" fill="#42DDC6" xlink:href="#path-9"></use>
                        <path d="M10,16.3584912 C7.05190503,17.9152777 4.7185717,20.5556041 3,24.2794701 C4.55664677,26.98579 5.8899801,28.7460076 7,29.5601228 C8.1100199,30.374238 9.77668657,30.8142924 12,30.8802859 C14.4181845,30.8702832 16.4181845,30.4302288 18,29.5601228 C19.5818155,28.6900167 21.5818155,26.9297992 24,24.2794701 C21.183153,20.0454163 18.8498197,17.40509 17,16.3584912 C14.2252704,14.788593 14.4221425,14.0233114 10,16.3584912 Z" fill="#1B8095" mask="url(#mask-10)"></path>
                    </g>
                    <ellipse id="Oval" fill="#1B8095" cx="20.5" cy="18" rx="4.5" ry="5"></ellipse>
                    <g id="Group-6" transform="translate(43.000000, 15.000000)" fill="#3DBCBC" fill-rule="nonzero">
                        <path d="M3.60822483e-15,1 L26,1 C26.2761424,1 26.5,0.776142375 26.5,0.5 C26.5,0.223857625 26.2761424,0 26,0 L3.60822483e-15,0 C-0.276142375,0 -0.5,0.223857625 -0.5,0.5 C-0.5,0.776142375 -0.276142375,1 3.60822483e-15,1 Z" id="Path-4"></path>
                        <path d="M5.27355937e-15,6 L26,6 C26.2761424,6 26.5,5.77614237 26.5,5.5 C26.5,5.22385763 26.2761424,5 26,5 L5.27355937e-15,5 C-0.276142375,5 -0.5,5.22385763 -0.5,5.5 C-0.5,5.77614237 -0.276142375,6 5.27355937e-15,6 Z" id="Path-4"></path>
                        <path d="M5.27355937e-15,11 L26,11 C26.2761424,11 26.5,10.7761424 26.5,10.5 C26.5,10.2238576 26.2761424,10 26,10 L5.27355937e-15,10 C-0.276142375,10 -0.5,10.2238576 -0.5,10.5 C-0.5,10.7761424 -0.276142375,11 5.27355937e-15,11 Z" id="Path-4"></path>
                    </g>
                    <g id="Group-6" transform="translate(275.000000, 125.000000)" fill="#3DBCBC" fill-rule="nonzero">
                        <path d="M-1.77635684e-15,1 L26,1 C26.2761424,1 26.5,0.776142375 26.5,0.5 C26.5,0.223857625 26.2761424,0 26,0 L-1.77635684e-15,0 C-0.276142375,0 -0.5,0.223857625 -0.5,0.5 C-0.5,0.776142375 -0.276142375,1 -1.77635684e-15,1 Z" id="Path-4"></path>
                        <path d="M-1.77635684e-15,5 L26,5 C26.2761424,5 26.5,4.77614237 26.5,4.5 C26.5,4.22385763 26.2761424,4 26,4 L-1.77635684e-15,4 C-0.276142375,4 -0.5,4.22385763 -0.5,4.5 C-0.5,4.77614237 -0.276142375,5 -1.77635684e-15,5 Z" id="Path-4"></path>
                        <path d="M-1.77635684e-15,9 L26,9 C26.2761424,9 26.5,8.77614237 26.5,8.5 C26.5,8.22385763 26.2761424,8 26,8 L-1.77635684e-15,8 C-0.276142375,8 -0.5,8.22385763 -0.5,8.5 C-0.5,8.77614237 -0.276142375,9 -1.77635684e-15,9 Z" id="Path-4"></path>
                    </g>
                    <polygon id="Path-5" fill="#8A1C9B" fill-rule="nonzero" points="305.5 65.5 305.5 109 306.5 109 306.5 64.5 231 64.5 231 65.5"></polygon>
                    <mask id="mask-12" fill="white">
                        <use xlink:href="#path-11"></use>
                    </mask>
                    <use id="Mask" stroke="#FFFFFF" fill="#42DDC6" xlink:href="#path-11"></use>
                    <path d="M318,135.299316 C318.49219,135.032714 319.001462,134.603763 319.527832,134.012451 C320.054202,133.42114 320.317383,132.8418 320.317383,132.274414 C320.317383,131.973631 320.262696,131.631838 320.15332,131.249023 C320.091797,131.030272 319.989259,130.73633 319.845703,130.367188 L318.020508,130.367188 L318.020508,129.21875 L319.189453,129.21875 C318.874998,128.603513 318.642579,128.06177 318.492188,127.593506 C318.341796,127.125242 318.266602,126.621096 318.266602,126.081055 C318.266602,125.028315 318.702388,124.084965 319.573975,123.250977 C320.445561,122.416988 321.68798,122 323.30127,122 C324.64112,122 325.803218,122.370846 326.787598,123.112549 C327.771978,123.854252 328.294922,125.106925 328.356445,126.870605 L325.577637,126.870605 C325.509277,126.193844 325.352052,125.646975 325.105957,125.22998 C324.743651,124.648923 324.13184,124.358398 323.270508,124.358398 C322.634762,124.358398 322.132326,124.55493 321.763184,124.947998 C321.394041,125.341066 321.209473,125.793943 321.209473,126.306641 C321.209473,126.614259 321.274413,126.937254 321.404297,127.275635 L321.53183,127.587418 C321.689483,127.957198 321.937498,128.500973 322.275879,129.21875 L325.21875,129.21875 L325.21875,130.367188 L322.716797,130.367188 L322.783447,131.033691 L322.783447,131.033691 C322.800537,131.211427 322.809082,131.389159 322.809082,131.566895 C322.809082,132.223148 322.610842,132.83154 322.214355,133.39209 C321.961425,133.740724 321.448734,134.270504 320.67627,134.981445 L321.05951,134.845581 C321.356446,134.743042 321.597305,134.667206 321.782089,134.618073 L321.88623,134.591797 C322.303225,134.482421 322.709959,134.427734 323.106445,134.427734 C323.35254,134.427734 323.593505,134.448242 323.829346,134.489258 C324.065187,134.530274 324.316405,134.588379 324.583008,134.663574 L325.003418,134.796875 C325.187989,134.858399 325.343505,134.897705 325.469971,134.914795 C325.596436,134.931885 325.704101,134.94043 325.792969,134.94043 C326.107423,134.94043 326.47656,134.851563 326.900391,134.673828 C327.146486,134.571289 327.4541,134.414064 327.823242,134.202148 L328.664062,136.48877 C328.322264,136.714357 327.843753,136.933104 327.228516,137.14502 C326.613278,137.356935 326.021975,137.462891 325.45459,137.462891 C325.153807,137.462891 324.839357,137.425293 324.51123,137.350098 C324.183104,137.274902 323.827639,137.175782 323.444824,137.052734 L322.860352,136.85791 L322.514282,136.750244 C322.410034,136.719482 322.316895,136.693848 322.234863,136.67334 C321.961424,136.618652 321.681154,136.591309 321.394043,136.591309 C321.086424,136.591309 320.754885,136.652831 320.399414,136.775879 L320.102051,136.897786 C319.860515,137.001085 319.532391,137.148437 319.117676,137.339844 L318,135.299316 Z" id="£" fill="#1B8095" fill-rule="nonzero" mask="url(#mask-12)"></path>
                    <polygon id="Path-6" fill="#FFFFFF" fill-rule="nonzero" mask="url(#mask-12)" points="97 132 116 132 116 131 97 131"></polygon>
                    <polygon id="Path-6" fill="#FFFFFF" fill-rule="nonzero" mask="url(#mask-12)" points="108 138 127 138 127 137 108 137"></polygon>
                    <polygon id="Path-6" fill="#FFFFFF" fill-rule="nonzero" mask="url(#mask-12)" points="269 42 288 42 288 41 269 41"></polygon>
                    <polygon id="Path-6" fill="#FFFFFF" fill-rule="nonzero" mask="url(#mask-12)" points="280 48 299 48 299 47 280 47"></polygon>
                </g>
            </g>
        </g>
    </g>
</svg>